<svg width="107" height="107" viewBox="0 0 107 107" fill="none" xmlns="http://www.w3.org/2000/svg">
<path d="M64.7812 92.9812L53.8255 94.5164L55.3607 105.472L66.3164 103.937L64.7812 92.9812Z" fill="white"/>
<path d="M50.5431 96.6489L49.3807 104.305L46.8487 103.921C46.32 103.84 45.8394 103.665 45.4068 103.394C44.9737 103.127 44.609 102.79 44.3127 102.383C44.0158 101.98 43.8041 101.532 43.6776 101.039C43.5468 100.549 43.5215 100.04 43.6018 99.5113C43.6821 98.9826 43.8576 98.502 44.1284 98.0695C44.3951 97.64 44.7302 97.275 45.1339 96.9745C45.537 96.6776 45.9853 96.4641 46.4788 96.3339C46.9717 96.2073 47.4825 96.1842 48.0111 96.2644L50.5431 96.6489ZM49.2329 97.6136L47.8384 97.4019C47.4666 97.3454 47.1097 97.3621 46.7678 97.452C46.4223 97.5412 46.1068 97.691 45.8212 97.9013C45.532 98.111 45.2935 98.3676 45.1057 98.671C44.9179 98.9745 44.7958 99.3121 44.7393 99.684C44.6828 100.056 44.6992 100.415 44.7885 100.76C44.8778 101.106 45.0294 101.421 45.2433 101.707C45.4536 101.993 45.7104 102.23 46.0139 102.418C46.3137 102.605 46.6495 102.727 47.0214 102.783L48.4159 102.995L49.2329 97.6136Z" fill="white"/>
<path d="M37.9926 99.5563L36.9086 99.1709L38.7615 93.9591L39.8456 94.3446L37.9926 99.5563ZM37.1715 100.116C37.3383 100.175 37.4581 100.278 37.531 100.425C37.6039 100.573 37.6113 100.728 37.5532 100.891C37.4964 101.051 37.3933 101.165 37.2438 101.233C37.0931 101.305 36.9361 101.312 36.7728 101.254C36.6129 101.197 36.4972 101.093 36.4255 100.942C36.3526 100.795 36.3446 100.642 36.4014 100.482C36.4595 100.318 36.5633 100.203 36.7127 100.135C36.8587 100.065 37.0117 100.059 37.1715 100.116Z" fill="white"/>
<path d="M33.3897 91.4109C33.6369 91.5661 33.8584 91.7534 34.054 91.9728C34.2496 92.1922 34.3993 92.4266 34.5032 92.6759C34.602 92.9267 34.6414 93.1789 34.6214 93.4323L33.5603 93.3349C33.5657 93.2245 33.5394 93.099 33.4814 92.9585C33.4201 92.8162 33.3332 92.6788 33.2205 92.5463C33.106 92.4171 32.971 92.3102 32.8154 92.2258C32.663 92.1432 32.5106 92.0877 32.3581 92.0595C32.2006 92.0328 32.0551 92.0419 31.9216 92.087C31.7881 92.132 31.687 92.2177 31.6184 92.3441C31.541 92.4867 31.5299 92.6233 31.5849 92.7538C31.6349 92.8859 31.7198 93.0116 31.8396 93.1312C31.9593 93.2507 32.0799 93.3686 32.2014 93.4849C32.4804 93.7285 32.7193 93.984 32.9183 94.2514C33.1122 94.5203 33.2342 94.7941 33.2843 95.073C33.3326 95.3552 33.2793 95.6388 33.1246 95.9241C32.9558 96.2352 32.7255 96.4585 32.4339 96.5939C32.1405 96.7326 31.8242 96.7897 31.4851 96.7651C31.1428 96.7388 30.816 96.6412 30.5049 96.4724C30.1159 96.2613 29.8043 95.9852 29.5698 95.6441C29.3354 95.3029 29.2106 94.9415 29.1953 94.5598L30.256 94.5186C30.2519 94.6422 30.2773 94.7693 30.3324 94.8999C30.3874 95.0304 30.4642 95.1518 30.5627 95.264C30.6595 95.3794 30.7726 95.4764 30.9019 95.555C31.0637 95.6512 31.2282 95.7153 31.3955 95.7473C31.5577 95.7808 31.7065 95.7734 31.8417 95.7251C31.977 95.6769 32.0842 95.5798 32.1633 95.434C32.2407 95.2913 32.2485 95.1571 32.1867 95.0313C32.1232 94.9087 32.0267 94.785 31.8972 94.6602C31.7645 94.5337 31.6312 94.4005 31.4973 94.2607C31.258 94.0134 31.0481 93.7548 30.8674 93.4847C30.6849 93.2179 30.5678 92.9466 30.516 92.671C30.4641 92.3953 30.5162 92.1215 30.6722 91.8495C30.8375 91.5449 31.075 91.3276 31.3846 91.1977C31.691 91.0661 32.0225 91.0194 32.3793 91.0578C32.7361 91.0962 33.0729 91.2139 33.3897 91.4109Z" fill="white"/>
<path d="M24.2693 87.1113L23.837 86.0233C24.254 85.9148 24.6784 85.9039 25.1104 85.9905C25.5396 86.0747 25.9269 86.2609 26.2724 86.549C26.6632 86.8749 26.9362 87.2731 27.0913 87.7434C27.2437 88.2113 27.2756 88.6941 27.1871 89.1917C27.0934 89.6898 26.8753 90.1442 26.5329 90.5548C26.2731 90.8663 25.9758 91.1105 25.6409 91.2875C25.3038 91.4672 24.9539 91.5787 24.5912 91.622C24.2234 91.6658 23.8622 91.6383 23.5077 91.5395C23.1531 91.4407 22.83 91.2696 22.5383 91.0263C22.1928 90.7382 21.9401 90.3906 21.7802 89.9835C21.6175 89.5741 21.5532 89.1532 21.5874 88.7207L22.7353 88.9506C22.7362 89.1914 22.7852 89.4148 22.8824 89.6207C22.9772 89.8294 23.1081 90.0034 23.2752 90.1428C23.5074 90.3364 23.7716 90.4487 24.0676 90.4795C24.3584 90.5108 24.6453 90.4691 24.9281 90.3545C25.2058 90.2403 25.4462 90.0615 25.6493 89.8179C25.8501 89.5772 25.9814 89.3074 26.0434 89.0086C26.103 88.7126 26.0913 88.4243 26.0083 88.1438C25.9225 87.861 25.7649 87.6239 25.5355 87.4326C25.3599 87.2862 25.1598 87.1864 24.9351 87.1335C24.7103 87.0805 24.4884 87.0731 24.2693 87.1113Z" fill="white"/>
<path d="M19.9759 80.0445C20.2865 80.4476 20.4664 80.8956 20.5156 81.3884C20.5625 81.8783 20.4887 82.3565 20.2941 82.8229C20.0944 83.2887 19.7827 83.6848 19.3591 84.0111C19.0378 84.2587 18.6945 84.4324 18.3292 84.5323C17.961 84.6344 17.5953 84.6672 17.2319 84.6306C16.8634 84.5934 16.5168 84.488 16.1922 84.3144C15.8677 84.1409 15.5895 83.9037 15.3576 83.6028C15.0471 83.1997 14.8683 82.7532 14.8214 82.2633C14.7722 81.7705 14.8475 81.2912 15.0472 80.8254C15.2447 80.3567 15.5567 79.958 15.9832 79.6295C16.3016 79.3841 16.6434 79.2115 17.0087 79.1116C17.374 79.0118 17.7409 78.9804 18.1094 79.0177C18.4728 79.0543 18.8168 79.1594 19.1413 79.3329C19.4637 79.5035 19.7419 79.7407 19.9759 80.0445ZM19.0645 80.7467C18.8777 80.5043 18.6458 80.3362 18.3687 80.2424C18.0916 80.1486 17.8052 80.1273 17.5093 80.1783C17.2083 80.2287 16.9337 80.3495 16.6854 80.5408C16.4312 80.7366 16.2426 80.9751 16.1194 81.2563C15.9939 81.5345 15.9426 81.8184 15.9656 82.1079C15.9856 82.3998 16.0867 82.664 16.269 82.9006C16.4536 83.1401 16.6855 83.3082 16.9648 83.4049C17.2419 83.4987 17.531 83.5204 17.832 83.47C18.1307 83.4167 18.4057 83.2933 18.6569 83.0997C18.9169 82.8994 19.1071 82.6598 19.2274 82.3809C19.3476 82.102 19.3963 81.8178 19.3734 81.5282C19.3453 81.238 19.2423 80.9775 19.0645 80.7467Z" fill="white"/>
<path d="M14.4869 71.2041L15.1123 72.5421L10.9464 76.7181L10.4264 75.6057L13.5982 72.4378L9.13103 72.8347L8.61335 71.7273L14.4869 71.2041Z" fill="white"/>
<path d="M11.9853 63.2422C12.0954 63.739 12.0681 64.221 11.9034 64.6881C11.738 65.1515 11.4682 65.5531 11.094 65.8929C10.7154 66.2299 10.2651 66.4562 9.74309 66.5719C9.34706 66.6597 8.96248 66.6712 8.58934 66.6066C8.2126 66.5428 7.8675 66.4172 7.55403 66.2298C7.23616 66.0397 6.96711 65.7971 6.7469 65.5022C6.52668 65.2073 6.37548 64.8745 6.2933 64.5036C6.20155 64.0896 6.20378 63.6906 6.29999 63.3067C6.39261 62.9236 6.563 62.5761 6.81116 62.2643C7.05572 61.9532 7.36145 61.6966 7.72834 61.4944C8.09164 61.2931 8.49808 61.1671 8.94769 61.1166L9.87043 65.2802C10.1085 65.1784 10.3135 65.0385 10.4856 64.8606C10.6533 64.6799 10.7716 64.4724 10.8406 64.2381C10.9087 64.0001 10.9158 63.7511 10.862 63.4911C10.8014 63.2175 10.6779 62.9843 10.4916 62.7914C10.3045 62.5949 10.0744 62.4513 9.80131 62.3608L9.8134 61.1627C10.3401 61.2726 10.8047 61.5114 11.2073 61.8792C11.6063 62.2478 11.8656 62.7022 11.9853 63.2422ZM9.02015 65.5083L8.34036 62.4409C8.08912 62.5344 7.87545 62.6781 7.69935 62.8719C7.51885 63.063 7.39174 63.2819 7.318 63.5287C7.23986 63.7726 7.22952 64.0242 7.28697 64.2834C7.34361 64.539 7.45748 64.7631 7.62856 64.9556C7.79884 65.1445 8.00614 65.2874 8.25047 65.3843C8.4904 65.4784 8.74696 65.5198 9.02015 65.5083Z" fill="white"/>
<path d="M10.8069 56.0599L5.27664 56.1712L5.2535 55.0209L5.83971 55.0091C5.60727 54.822 5.42186 54.5897 5.2835 54.3121C5.14514 54.0346 5.0727 53.7336 5.06617 53.4092C5.06202 53.2027 5.08555 52.9975 5.13677 52.7936L6.30736 53.2293C6.25495 53.3742 6.23019 53.5185 6.23308 53.6623C6.23798 53.9057 6.3033 54.1275 6.42904 54.3278C6.5511 54.5282 6.71474 54.6872 6.91997 54.8048C7.12519 54.9224 7.35131 54.9787 7.59833 54.9737L10.7838 54.9096L10.8069 56.0599Z" fill="white"/>
<path d="M6.25019 35.8344L6.68465 34.5507L9.86088 38.417L13.1722 39.5378L12.8034 40.6276L9.49204 39.5068L4.6223 40.6441L5.05676 39.3605L8.48711 38.5594L6.25019 35.8344Z" fill="white"/>
<path d="M17.2895 31.2355C17.0193 31.6667 16.6617 31.9909 16.2166 32.2082C15.7735 32.4223 15.2995 32.5191 14.7945 32.4986C14.2883 32.4731 13.8087 32.3183 13.3555 32.0344C13.0118 31.8191 12.7297 31.5575 12.5092 31.2496C12.2855 30.9398 12.1278 30.6081 12.0359 30.2547C11.9429 29.8961 11.9214 29.5346 11.9714 29.1699C12.0215 28.8053 12.1473 28.462 12.349 28.1402C12.6191 27.7089 12.9758 27.3862 13.4189 27.1721C13.8639 26.9549 14.3395 26.859 14.8457 26.8846C15.3538 26.9071 15.836 27.0612 16.2923 27.347C16.6329 27.5604 16.9134 27.8211 17.134 28.1289C17.3545 28.4368 17.5113 28.77 17.6043 29.1285C17.6961 29.482 17.7171 29.8411 17.667 30.2057C17.6189 30.5672 17.4931 30.9105 17.2895 31.2355ZM16.3145 30.6246C16.477 30.3652 16.5541 30.0894 16.5458 29.797C16.5375 29.5046 16.4581 29.2285 16.3075 28.9688C16.1557 28.704 15.947 28.4884 15.6814 28.322C15.4096 28.1517 15.1204 28.0576 14.814 28.0396C14.5095 28.0186 14.2255 28.0691 13.9619 28.1912C13.6952 28.3113 13.4825 28.4979 13.3239 28.751C13.1634 29.0072 13.0863 29.2831 13.0926 29.5786C13.1009 29.871 13.1809 30.1496 13.3327 30.4144C13.4864 30.6761 13.6976 30.8911 13.9664 31.0595C14.2445 31.2337 14.5352 31.3288 14.8385 31.3448C15.1418 31.3607 15.4253 31.3077 15.6889 31.1856C15.9513 31.0585 16.1598 30.8715 16.3145 30.6246Z" fill="white"/>
<path d="M19.8178 23.9701L17.3574 21.5416L18.1656 20.7228L20.4253 22.9531C20.6011 23.1267 20.804 23.2414 21.0338 23.2973C21.2636 23.3532 21.4931 23.3517 21.7222 23.2928C21.9486 23.2313 22.1473 23.114 22.3183 22.9408C22.4919 22.765 22.6066 22.5647 22.6625 22.3401C22.7184 22.1103 22.7156 21.8821 22.6541 21.6557C22.5953 21.4266 22.4779 21.2253 22.3021 21.0517L20.0424 18.8213L20.8506 18.0025L24.7912 21.8843L23.983 22.7031L23.5539 22.2874C23.5845 22.5818 23.5486 22.8754 23.4463 23.1681C23.3439 23.4608 23.18 23.7214 22.9546 23.9497C22.6671 24.241 22.3346 24.4361 21.9571 24.5351C21.5797 24.634 21.2016 24.6365 20.8229 24.5425C20.4442 24.4485 20.1091 24.2577 19.8178 23.9701Z" fill="white"/>
<path d="M28.1934 19.1471L25.0656 14.585L26.0145 13.9344L26.346 14.418C26.3749 14.121 26.4674 13.8385 26.6234 13.5705C26.7795 13.3026 26.9914 13.0768 27.259 12.8933C27.4293 12.7766 27.6138 12.6836 27.8123 12.6146L28.0905 13.8322C27.9406 13.8679 27.8064 13.9264 27.6878 14.0078C27.487 14.1454 27.3374 14.3217 27.239 14.5368C27.1384 14.7488 27.0953 14.9728 27.1096 15.2089C27.124 15.445 27.201 15.665 27.3407 15.8687L29.1423 18.4965L28.1934 19.1471Z" fill="white"/>
<path d="M39.9486 12.9077L38.0517 5.39975L40.5347 4.77241C41.0531 4.64143 41.5641 4.6169 42.0679 4.69882C42.5707 4.77716 43.0375 4.94638 43.4684 5.20646C43.8983 5.46297 44.2672 5.79386 44.575 6.19913C44.8854 6.59993 45.1061 7.05954 45.2371 7.57795C45.3681 8.09636 45.3926 8.60743 45.3107 9.11117C45.2315 9.61042 45.064 10.0768 44.8084 10.5103C44.5519 10.9403 44.2215 11.3109 43.8171 11.6223C43.4118 11.93 42.95 12.1494 42.4316 12.2804L39.9486 12.9077ZM40.7822 11.5104L42.1497 11.1649C42.5144 11.0728 42.8369 10.9191 43.1172 10.7037C43.4011 10.4875 43.6339 10.2271 43.8155 9.92252C44.0008 9.61707 44.1212 9.28809 44.1766 8.93557C44.2321 8.58305 44.2138 8.22445 44.1216 7.85977C44.0295 7.4951 43.8753 7.17083 43.6591 6.88696C43.4428 6.60309 43.1806 6.37076 42.8725 6.18997C42.568 6.00828 42.2394 5.8897 41.8869 5.83423C41.538 5.77786 41.1812 5.79575 40.8165 5.88788L39.449 6.23339L40.7822 11.5104Z" fill="white"/>
<path d="M50.6897 10.8634L50.4942 5.33544L51.644 5.29477L51.6647 5.88073C51.8482 5.64547 52.0777 5.45654 52.3531 5.31397C52.6285 5.17139 52.9283 5.09437 53.2526 5.0829C53.459 5.0756 53.6645 5.09601 53.8692 5.14412L53.4514 6.32121C53.3057 6.27101 53.161 6.24845 53.0173 6.25354C52.7741 6.26214 52.5533 6.33083 52.3549 6.45962C52.1564 6.58471 51.9999 6.75076 51.8854 6.95775C51.771 7.16474 51.7181 7.39169 51.7269 7.63861L51.8395 10.8227L50.6897 10.8634Z" fill="white"/>
<path d="M60.3401 11.4466C59.8379 11.3642 59.4006 11.1598 59.0282 10.8333C58.6594 10.5075 58.3868 10.1078 58.2104 9.63413C58.0382 9.15746 57.9954 8.6553 58.082 8.12765C58.1477 7.72737 58.2798 7.36602 58.4784 7.04361C58.6777 6.71756 58.9225 6.44383 59.213 6.22243C59.5076 5.99798 59.8328 5.83833 60.1884 5.74347C60.544 5.6486 60.9092 5.63192 61.284 5.69342C61.7025 5.76208 62.0721 5.9124 62.3928 6.14439C62.714 6.37274 62.9733 6.66004 63.1706 7.00631C63.3685 7.34894 63.4931 7.72813 63.5445 8.14388C63.5965 8.55599 63.5624 8.98014 63.4422 9.41633L59.2338 8.72583C59.2399 8.98468 59.2936 9.22704 59.3948 9.45291C59.5002 9.67574 59.6489 9.86269 59.8409 10.0138C60.0365 10.1654 60.265 10.2646 60.5264 10.3112C60.8029 10.3566 61.0654 10.3286 61.3137 10.2274C61.5656 10.1267 61.7844 9.96643 61.9699 9.7465L63.0778 10.2029C62.78 10.6511 62.3856 10.9937 61.8945 11.2308C61.4041 11.4642 60.8859 11.5361 60.3401 11.4466ZM59.338 7.85168L62.4384 8.36037C62.445 8.0924 62.391 7.84064 62.2764 7.60511C62.1661 7.36653 62.0101 7.16717 61.8084 7.00702C61.611 6.84384 61.3813 6.74075 61.1193 6.69776C60.8609 6.65537 60.6106 6.67783 60.3683 6.76513C60.1297 6.85303 59.9199 6.99239 59.7392 7.1832C59.5626 7.37097 59.4289 7.5938 59.338 7.85168Z" fill="white"/>
<path d="M73.5348 9.47254L74.5994 9.90877L72.5021 15.0271L71.4324 14.5888L71.6955 13.8299C71.4377 14.0311 71.148 14.1594 70.8264 14.215C70.5047 14.2705 70.1699 14.2269 69.8219 14.0843C69.4465 13.9305 69.122 13.7158 68.8484 13.4403C68.5761 13.1614 68.3654 12.8439 68.2164 12.4879C68.0708 12.1334 67.9951 11.7636 67.9894 11.3787C67.9852 10.9904 68.0606 10.6069 68.2158 10.2281C68.3654 9.86302 68.5742 9.54805 68.8421 9.28323C69.1114 9.015 69.4169 8.80938 69.7584 8.66638C70.0999 8.52338 70.4573 8.44866 70.8306 8.4422C71.2087 8.43373 71.5803 8.50429 71.9454 8.6539C72.3173 8.8063 72.6099 9.02583 72.8232 9.31249C73.0414 9.59714 73.1904 9.90929 73.2704 10.2489L73.5348 9.47254ZM70.2178 13.045C70.5181 13.1681 70.8109 13.2024 71.0962 13.1479C71.383 13.0901 71.6395 12.96 71.8658 12.7579C72.0955 12.5571 72.2733 12.3032 72.3991 11.9961C72.5264 11.6855 72.5786 11.3782 72.5558 11.0739C72.533 10.7697 72.4391 10.4981 72.274 10.2591C72.1137 10.018 71.8834 9.83601 71.5832 9.71297C71.2863 9.59133 70.9843 9.55525 70.6771 9.60471C70.3699 9.65418 70.0929 9.77581 69.8461 9.96959C69.5993 10.1634 69.413 10.4138 69.2872 10.7209C69.1599 11.0314 69.1179 11.343 69.1612 11.6556C69.2093 11.9662 69.3237 12.2462 69.5044 12.4957C69.69 12.7431 69.9278 12.9262 70.2178 13.045Z" fill="white"/>
<path d="M76.3044 16.9747L79.6541 12.573L80.5697 13.2697L80.2146 13.7363C80.5056 13.6705 80.8014 13.6685 81.1019 13.7304C81.4053 13.7944 81.6861 13.9247 81.9444 14.1213C82.2583 14.3602 82.4893 14.6565 82.6373 15.0101C82.7875 15.3607 82.8455 15.7199 82.8112 16.0877C83.1565 15.9566 83.5153 15.9145 83.8874 15.9614C84.2647 16.0075 84.6103 16.1501 84.9243 16.389C85.2501 16.6369 85.4862 16.9417 85.6326 17.3034C85.7791 17.6651 85.8299 18.0397 85.7851 18.4273C85.7404 18.815 85.5941 19.1716 85.3462 19.4974L83.2459 22.2573L82.3303 21.5605L84.2531 19.0339C84.4005 18.8402 84.4886 18.627 84.5176 18.3941C84.5465 18.1613 84.5197 17.9347 84.4371 17.7143C84.3546 17.4939 84.2165 17.3101 84.0228 17.1627C83.8291 17.0153 83.6173 16.9282 83.3874 16.9015C83.1575 16.8749 82.9342 16.9065 82.7174 16.9964C82.5007 17.0864 82.3142 17.234 82.1579 17.4395L80.2351 19.9661L79.3196 19.2693L81.2423 16.7427C81.3986 16.5373 81.4912 16.3182 81.5202 16.0853C81.5491 15.8524 81.5186 15.6276 81.4286 15.4109C81.3416 15.1964 81.2013 15.0155 81.0076 14.8681C80.8169 14.7229 80.6028 14.6388 80.3655 14.6158C80.1311 14.595 79.9056 14.6295 79.6888 14.7195C79.4721 14.8094 79.2901 14.9512 79.1427 15.1449L77.2199 17.6715L76.3044 16.9747Z" fill="white"/>
<path d="M89.6454 30.134L96.349 26.2572L97.6838 28.5651C97.8924 28.9258 97.9913 29.3031 97.9806 29.697C97.9716 30.0941 97.8654 30.4665 97.6618 30.8142C97.4601 31.1652 97.1757 31.4468 96.8086 31.6591C96.4351 31.8751 96.0451 31.9814 95.6384 31.9781C95.2368 31.976 94.8617 31.8799 94.5131 31.6896C94.1645 31.4993 93.8887 31.2285 93.6856 30.8774L92.9268 29.5654L90.2214 31.13L89.6454 30.134ZM93.9228 28.9894L94.6234 30.2008C94.7342 30.3924 94.8827 30.5387 95.0689 30.6397C95.2569 30.7439 95.4576 30.7962 95.6707 30.7964C95.8857 30.7999 96.0937 30.7435 96.2949 30.6272C96.496 30.5109 96.6486 30.3587 96.7529 30.1706C96.8621 29.9839 96.9169 29.7839 96.9172 29.5708C96.9225 29.359 96.8697 29.1573 96.759 28.9658L96.0584 27.7544L93.9228 28.9894Z" fill="white"/>
<path d="M93.768 38.2557L98.9947 36.4454L99.3713 37.5326L98.8172 37.7245C99.096 37.8308 99.344 37.9947 99.5612 38.2161C99.7783 38.4375 99.94 38.7015 100.046 39.0081C100.114 39.2032 100.155 39.4057 100.169 39.6154L98.9209 39.5618C98.9261 39.4078 98.9051 39.2628 98.8581 39.1269C98.7784 38.8969 98.6479 38.706 98.4665 38.5542C98.2887 38.4012 98.084 38.3004 97.8525 38.2518C97.621 38.2032 97.3886 38.2193 97.1551 38.3001L94.1445 39.3429L93.768 38.2557Z" fill="white"/>
<path d="M96.0451 47.6527C95.9764 47.1484 96.0433 46.6704 96.246 46.2185C96.4491 45.7703 96.7512 45.3923 97.1521 45.0846C97.5572 44.78 98.0247 44.5916 98.5545 44.5194C98.9564 44.4647 99.3406 44.4849 99.7072 44.5801C100.077 44.6748 100.411 44.8284 100.708 45.041C101.009 45.2568 101.257 45.5207 101.452 45.8328C101.647 46.1449 101.77 46.4891 101.822 46.8654C101.89 47.3697 101.823 47.8459 101.62 48.2941C101.417 48.746 101.114 49.1242 100.708 49.4288C100.304 49.737 99.8348 49.9274 99.3014 50.0001C98.9031 50.0544 98.5207 50.034 98.1542 49.9388C97.7877 49.8436 97.4539 49.6881 97.1528 49.4723C96.8558 49.2597 96.6098 48.9974 96.4147 48.6853C96.2201 48.3769 96.0969 48.0327 96.0451 47.6527ZM97.1851 47.4973C97.2264 47.8006 97.3439 48.0618 97.5375 48.2811C97.7311 48.5003 97.969 48.6614 98.2509 48.7644C98.5371 48.8706 98.8355 48.9025 99.146 48.8602C99.4639 48.8168 99.7463 48.7039 99.9931 48.5214C100.24 48.3426 100.426 48.1219 100.55 47.8593C100.678 47.5963 100.722 47.3167 100.682 47.0208C100.641 46.7212 100.523 46.4599 100.329 46.237C100.136 46.0178 99.8958 45.8551 99.6097 45.7489C99.324 45.6464 99.0241 45.6166 98.7098 45.6594C98.3847 45.7037 98.1005 45.8169 97.8573 45.9989C97.6142 46.1809 97.4305 46.4032 97.3062 46.6657C97.1861 46.9315 97.1457 47.2087 97.1851 47.4973Z" fill="white"/>
<path d="M93.8304 55.7923L93.9347 54.6466L102.198 55.3991L102.093 56.5448L101.283 56.4711C101.55 56.6805 101.758 56.9364 101.908 57.2389C102.058 57.5414 102.115 57.8873 102.08 58.2766C102.043 58.6769 101.934 59.0446 101.752 59.3797C101.569 59.7186 101.332 60.008 101.04 60.248C100.751 60.4883 100.425 60.6679 100.063 60.7867C99.7003 60.9055 99.3189 60.9467 98.9186 60.9102C98.5183 60.8737 98.1487 60.7642 97.8099 60.5815C97.471 60.3988 97.1796 60.1631 96.9356 59.8743C96.6953 59.5858 96.5159 59.2584 96.3974 58.8921C96.2786 58.5295 96.2375 58.1481 96.2739 57.7478C96.3094 57.3585 96.4283 57.0287 96.6306 56.7583C96.8367 56.4882 97.0876 56.2741 97.3834 56.1159L93.8304 55.7923ZM100.974 58.1647C101.003 57.8452 100.948 57.5569 100.808 57.2998C100.669 57.0427 100.469 56.8339 100.21 56.6732C99.9541 56.513 99.6609 56.4178 99.3304 56.3877C98.9999 56.3576 98.6926 56.3981 98.4085 56.5092C98.1243 56.6203 97.8904 56.7897 97.7068 57.0174C97.5231 57.245 97.4167 57.5186 97.3876 57.8381C97.3589 58.1539 97.4114 58.4513 97.5453 58.7301C97.6828 59.0092 97.8802 59.2401 98.1376 59.4227C98.395 59.6054 98.6907 59.7119 99.0249 59.7424C99.3518 59.7721 99.6583 59.7204 99.9444 59.5873C100.23 59.4578 100.466 59.2682 100.652 59.0185C100.837 58.7688 100.945 58.4842 100.974 58.1647Z" fill="white"/>
<path d="M94.4293 66.7802C94.5879 66.2967 94.8572 65.8961 95.237 65.5783C95.6157 65.264 96.0526 65.0561 96.5478 64.9547C97.0452 64.8579 97.548 64.8929 98.056 65.0596C98.4415 65.1861 98.7782 65.3722 99.0662 65.6181C99.3577 65.8651 99.5905 66.1492 99.7646 66.4702C99.941 66.7959 100.049 67.1417 100.088 67.5077C100.127 67.8737 100.087 68.2371 99.9687 68.598C99.8365 69.001 99.6311 69.343 99.3525 69.6242C99.0775 69.9065 98.7537 70.1185 98.3812 70.2602C98.0122 70.403 97.6183 70.4678 97.1996 70.4546C96.7844 70.4425 96.3706 70.3436 95.9581 70.1578L97.2878 66.1057C97.0311 66.0719 96.7834 66.0876 96.5446 66.1529C96.3082 66.2228 96.1006 66.341 95.9218 66.5074C95.7418 66.6773 95.6087 66.8878 95.5224 67.139C95.435 67.4052 95.4223 67.6689 95.4841 67.9298C95.5448 68.1942 95.6696 68.435 95.8583 68.6522L95.2369 69.6766C94.8399 69.3135 94.562 68.8711 94.4033 68.3494C94.2482 67.8288 94.2568 67.3058 94.4293 66.7802ZM98.1355 66.3431L97.1559 69.3283C97.4197 69.3761 97.6767 69.3615 97.9271 69.2845C98.1798 69.2122 98.4008 69.0887 98.5901 68.9141C98.7817 68.7441 98.9189 68.533 99.0017 68.2807C99.0833 68.0319 99.0996 67.7811 99.0506 67.5283C99.0005 67.279 98.895 67.0503 98.7343 66.8423C98.5759 66.639 98.3763 66.4726 98.1355 66.3431Z" fill="white"/>
<path d="M91.7829 73.5601L96.5967 76.2848L96.0299 77.286L95.5197 76.9972C95.6242 77.2767 95.6652 77.5711 95.6427 77.8804C95.6201 78.1897 95.5289 78.4855 95.3691 78.7679C95.2674 78.9477 95.1425 79.1121 94.9945 79.2614L94.2097 78.2897C94.3287 78.1918 94.4236 78.0802 94.4944 77.9551C94.6143 77.7433 94.6713 77.5191 94.6653 77.2827C94.6625 77.0481 94.6028 76.8278 94.4863 76.622C94.3697 76.4162 94.2039 76.2525 93.9889 76.1308L91.2162 74.5613L91.7829 73.5601Z" fill="white"/>
<path d="M89.4294 84.7405L90.164 83.8407L86.7743 81.0656L87.502 80.1745L90.8917 82.9496L91.448 82.2683L92.3392 82.996L91.7829 83.6773L93.1317 84.7715L92.404 85.6627L91.0552 84.5684L90.3205 85.4682L89.4294 84.7405Z" fill="white"/>
<path d="M83.6685 91.8069L82.7255 92.5934L79.7392 84.2801L80.678 83.4971L81.6805 86.2623L86.7483 89.2384L85.784 90.0426L82.2484 87.8414L83.6685 91.8069Z" fill="white"/>
</svg>
